<?xml version="1.0" encoding="UTF-8"?>
<svg xmlns="http://www.w3.org/2000/svg" xmlns:xlink="http://www.w3.org/1999/xlink" width="164px" height="150px" viewBox="0 0 164 150" version="1.1">
<g id="surface1">
<path style=" stroke:none;fill-rule:nonzero;fill:rgb(40.392157%,60.392159%,90.588236%);fill-opacity:1;" d="M 0.0585938 16.074219 C 8.894531 10.699219 17.765625 5.382812 26.597656 0 C 26.632812 40.9375 26.609375 81.875 26.609375 122.8125 C 22.523438 125.171875 18.527344 127.683594 14.480469 130.105469 C 9.671875 133.011719 4.867188 135.914062 0.0625 138.820312 C 0.0507812 97.902344 0.0625 56.988281 0.0585938 16.074219 Z M 0.0585938 16.074219 "/>
<path style=" stroke:none;fill-rule:nonzero;fill:rgb(9.411765%,41.960785%,100%);fill-opacity:1;" d="M 26.597656 0 C 34.546875 0.101562 42.507812 0.015625 50.464844 0.0429688 C 81.347656 0.0429688 112.234375 0.0429688 143.117188 0.0429688 C 144.8125 0.0507812 146.503906 0.554688 147.914062 1.507812 C 150.335938 3.074219 151.878906 5.917969 151.871094 8.808594 C 151.863281 15.082031 151.871094 21.351562 151.863281 27.625 C 151.859375 59.34375 151.871094 91.066406 151.859375 122.785156 C 110.109375 122.8125 68.355469 122.757812 26.609375 122.8125 C 26.609375 81.875 26.632812 40.9375 26.597656 0 Z M 61.855469 27.5 C 61.855469 50.175781 61.851562 72.847656 61.855469 95.519531 L 76.332031 95.519531 C 76.335938 79.9375 76.328125 64.355469 76.335938 48.769531 C 83.660156 64.355469 90.996094 79.933594 98.316406 95.515625 C 104.441406 95.523438 110.5625 95.519531 116.6875 95.519531 C 116.6875 72.84375 116.6875 50.171875 116.683594 27.5 L 102.207031 27.5 C 102.207031 41.515625 102.210938 55.535156 102.207031 69.550781 C 95.410156 55.523438 88.558594 41.523438 81.757812 27.496094 C 75.121094 27.503906 68.488281 27.496094 61.855469 27.5 Z M 61.855469 27.5 "/>
<path style=" stroke:none;fill-rule:nonzero;fill:rgb(100%,100%,100%);fill-opacity:1;" d="M 61.855469 27.5 C 68.488281 27.496094 75.121094 27.503906 81.757812 27.496094 C 88.558594 41.523438 95.410156 55.523438 102.207031 69.550781 C 102.210938 55.535156 102.207031 41.515625 102.207031 27.5 L 116.683594 27.5 C 116.6875 50.171875 116.6875 72.84375 116.6875 95.519531 C 110.5625 95.519531 104.441406 95.523438 98.316406 95.515625 C 90.996094 79.933594 83.660156 64.355469 76.335938 48.769531 C 76.328125 64.355469 76.335938 79.9375 76.332031 95.519531 L 61.855469 95.519531 C 61.851562 72.847656 61.855469 50.175781 61.855469 27.5 Z M 61.855469 27.5 "/>
<path style=" stroke:none;fill-rule:nonzero;fill:rgb(4.705882%,23.921569%,56.862748%);fill-opacity:1;" d="M 151.859375 122.785156 C 151.871094 91.066406 151.859375 59.34375 151.863281 27.625 C 155.890625 27.625 159.917969 27.621094 163.941406 27.625 C 163.941406 68.414062 163.941406 109.207031 163.941406 149.996094 C 116.902344 150 69.867188 150.003906 22.832031 149.996094 C 18.476562 149.882812 14.671875 146.035156 14.511719 141.679688 C 14.425781 137.824219 14.5 133.960938 14.480469 130.105469 C 18.527344 127.683594 22.523438 125.171875 26.609375 122.8125 C 68.355469 122.757812 110.109375 122.8125 151.859375 122.785156 Z M 151.859375 122.785156 "/>
</g>
</svg>
